<?xml version="1.0" encoding="UTF-8"?>
<!DOCTYPE svg PUBLIC "-//W3C//DTD SVG 1.1//EN" "http://www.w3.org/Graphics/SVG/1.1/DTD/svg11.dtd">
<svg xmlns="http://www.w3.org/2000/svg" version="1.1" width="512px" height="512px" style="shape-rendering:geometricPrecision; text-rendering:geometricPrecision; image-rendering:optimizeQuality; fill-rule:evenodd; clip-rule:evenodd" xmlns:xlink="http://www.w3.org/1999/xlink">
<g><path style="opacity:0.993" fill="#000000" d="M 81.5,-0.5 C 197.5,-0.5 313.5,-0.5 429.5,-0.5C 474.5,9.16667 501.833,36.5 511.5,81.5C 511.5,197.5 511.5,313.5 511.5,429.5C 501.833,474.5 474.5,501.833 429.5,511.5C 313.5,511.5 197.5,511.5 81.5,511.5C 36.5,501.833 9.16667,474.5 -0.5,429.5C -0.5,313.5 -0.5,197.5 -0.5,81.5C 9.16667,36.5 36.5,9.16667 81.5,-0.5 Z M 363.5,42.5 C 385.836,42.3334 408.169,42.5 430.5,43C 434.057,44.2934 436.057,46.7934 436.5,50.5C 435.565,54.3736 434.065,58.0403 432,61.5C 387.173,139.656 343.007,218.156 299.5,297C 329.082,351.495 358.415,406.161 387.5,461C 386.487,464.68 384.153,467.013 380.5,468C 358.5,468.667 336.5,468.667 314.5,468C 306.531,466.034 301.031,461.201 298,453.5C 269.902,401.08 241.402,348.913 212.5,297C 257.46,217.581 302.293,138.081 347,58.5C 350.471,50.8588 355.971,45.5254 363.5,42.5 Z M 107.5,126.5 C 127.836,126.333 148.169,126.5 168.5,127C 177.922,128.464 184.422,133.631 188,142.5C 200.787,165.91 213.954,189.077 227.5,212C 205.287,250.256 183.454,288.756 162,327.5C 159.083,333.418 154.583,337.585 148.5,340C 125.5,340.667 102.5,340.667 79.5,340C 75.1896,337.694 73.6896,334.194 75,329.5C 96.9871,290.353 118.82,251.187 140.5,212C 126.82,187.48 112.987,162.98 99,138.5C 96.816,131.16 99.6493,127.16 107.5,126.5 Z"/></g>
</svg>
